REM DIRINDEX 1\3,1\2\4,1\2\5,1\2\6
REM DIRNAME cjc137,folder01,folder02,folder03,folder04,folder05
TITLE ""
FILE "159.mp3" MP3
  TRACK 01 AUDIO
    TITLE "0:"
    INDEX 01 00:00:00
  TRACK 02 AUDIO
    TITLE "4:cjc137_7190"
    INDEX 01 00:00:05
  TRACK 03 AUDIO
    TITLE "0:"
    INDEX 01 00:01:46
  TRACK 04 AUDIO
    TITLE "6:cjc137_7191"
    INDEX 01 00:01:56
  TRACK 05 AUDIO
    TITLE "0:"
    INDEX 01 00:02:69
  TRACK 06 AUDIO
    TITLE "5:cjc137_7192"
    INDEX 01 00:03:06
  TRACK 07 AUDIO
    TITLE "0:"
    INDEX 01 00:04:48
  TRACK 08 AUDIO
    TITLE "4:cjc137_7193"
    INDEX 01 00:05:59
  TRACK 09 AUDIO
    TITLE "0:"
    INDEX 01 00:07:05
  TRACK 10 AUDIO
    TITLE "6:cjc137_7194"
    INDEX 01 00:07:13
  TRACK 11 AUDIO
    TITLE "0:"
    INDEX 01 00:08:64
  TRACK 12 AUDIO
    TITLE "5:cjc137_7195"
    INDEX 01 00:08:72
  TRACK 13 AUDIO
    TITLE "0:"
    INDEX 01 00:10:16
  TRACK 14 AUDIO
    TITLE "4:cjc137_7196"
    INDEX 01 00:11:27
  TRACK 15 AUDIO
    TITLE "0:"
    INDEX 01 00:12:65
  TRACK 16 AUDIO
    TITLE "6:cjc137_7197"
    INDEX 01 00:13:00
  TRACK 17 AUDIO
    TITLE "0:"
    INDEX 01 00:14:54
  TRACK 18 AUDIO
    TITLE "5:cjc137_7198"
    INDEX 01 00:14:60
  TRACK 19 AUDIO
    TITLE "0:"
    INDEX 01 00:16:22
  TRACK 20 AUDIO
    TITLE "4:cjc137_7199"
    INDEX 01 00:17:33
  TRACK 21 AUDIO
    TITLE "0:"
    INDEX 01 00:18:70
  TRACK 22 AUDIO
    TITLE "6:cjc137_7200"
    INDEX 01 00:19:01
  TRACK 23 AUDIO
    TITLE "0:"
    INDEX 01 00:20:43
  TRACK 24 AUDIO
    TITLE "5:cjc137_7201"
    INDEX 01 00:20:45
  TRACK 25 AUDIO
    TITLE "0:"
    INDEX 01 00:22:07
  TRACK 26 AUDIO
    TITLE "4:cjc137_7202"
    INDEX 01 00:23:12
  TRACK 27 AUDIO
    TITLE "0:"
    INDEX 01 00:24:49
  TRACK 28 AUDIO
    TITLE "6:cjc137_7203"
    INDEX 01 00:24:55
  TRACK 29 AUDIO
    TITLE "0:"
    INDEX 01 00:26:36
  TRACK 30 AUDIO
    TITLE "5:cjc137_7204"
    INDEX 01 00:26:44
  TRACK 31 AUDIO
    TITLE "0:"
    INDEX 01 00:28:06
  TRACK 32 AUDIO
    TITLE "4:cjc137_7205"
    INDEX 01 00:29:13
  TRACK 33 AUDIO
    TITLE "0:"
    INDEX 01 00:30:40
  TRACK 34 AUDIO
    TITLE "6:cjc137_7206"
    INDEX 01 00:30:48
  TRACK 35 AUDIO
    TITLE "0:"
    INDEX 01 00:32:00
  TRACK 36 AUDIO
    TITLE "5:cjc137_7207"
    INDEX 01 00:32:03
  TRACK 37 AUDIO
    TITLE "0:"
    INDEX 01 00:33:32
  TRACK 38 AUDIO
    TITLE "4:cjc137_7208"
    INDEX 01 00:34:40
  TRACK 39 AUDIO
    TITLE "0:"
    INDEX 01 00:35:63
  TRACK 40 AUDIO
    TITLE "6:cjc137_7209"
    INDEX 01 00:35:68
  TRACK 41 AUDIO
    TITLE "0:"
    INDEX 01 00:36:70
  TRACK 42 AUDIO
    TITLE "5:cjc137_7210"
    INDEX 01 00:36:74
  TRACK 43 AUDIO
    TITLE "0:"
    INDEX 01 00:38:18
  TRACK 44 AUDIO
    TITLE "4:cjc137_7211"
    INDEX 01 00:39:29
  TRACK 45 AUDIO
    TITLE "0:"
    INDEX 01 00:40:46
  TRACK 46 AUDIO
    TITLE "6:cjc137_7212"
    INDEX 01 00:40:56
  TRACK 47 AUDIO
    TITLE "0:"
    INDEX 01 00:42:04
  TRACK 48 AUDIO
    TITLE "5:cjc137_7213"
    INDEX 01 00:42:10
  TRACK 49 AUDIO
    TITLE "0:"
    INDEX 01 00:43:27
  TRACK 50 AUDIO
    TITLE "4:cjc137_7214"
    INDEX 01 00:44:36
  TRACK 51 AUDIO
    TITLE "0:"
    INDEX 01 00:46:09
  TRACK 52 AUDIO
    TITLE "6:cjc137_7215"
    INDEX 01 00:46:17
  TRACK 53 AUDIO
    TITLE "0:"
    INDEX 01 00:48:10
  TRACK 54 AUDIO
    TITLE "5:cjc137_7216"
    INDEX 01 00:48:14
  TRACK 55 AUDIO
    TITLE "0:"
    INDEX 01 00:49:61
  TRACK 56 AUDIO
    TITLE "4:cjc137_7217"
    INDEX 01 00:50:72
  TRACK 57 AUDIO
    TITLE "0:"
    INDEX 01 00:52:30
  TRACK 58 AUDIO
    TITLE "6:cjc137_7218"
    INDEX 01 00:52:37
  TRACK 59 AUDIO
    TITLE "0:"
    INDEX 01 00:54:34
  TRACK 60 AUDIO
    TITLE "5:cjc137_7219"
    INDEX 01 00:54:38
  TRACK 61 AUDIO
    TITLE "0:"
    INDEX 01 00:55:73
  TRACK 62 AUDIO
    TITLE "4:cjc137_7220"
    INDEX 01 00:57:03
  TRACK 63 AUDIO
    TITLE "0:"
    INDEX 01 00:58:48
  TRACK 64 AUDIO
    TITLE "6:cjc137_7221"
    INDEX 01 00:58:56
  TRACK 65 AUDIO
    TITLE "0:"
    INDEX 01 01:00:45
  TRACK 66 AUDIO
    TITLE "5:cjc137_7222"
    INDEX 01 01:00:53
  TRACK 67 AUDIO
    TITLE "0:"
    INDEX 01 01:02:22
  TRACK 68 AUDIO
    TITLE "4:cjc137_7223"
    INDEX 01 01:03:33
  TRACK 69 AUDIO
    TITLE "0:"
    INDEX 01 01:05:15
  TRACK 70 AUDIO
    TITLE "6:cjc137_7224"
    INDEX 01 01:05:24
  TRACK 71 AUDIO
    TITLE "0:"
    INDEX 01 01:07:37
  TRACK 72 AUDIO
    TITLE "5:cjc137_7225"
    INDEX 01 01:07:43
  TRACK 73 AUDIO
    TITLE "0:"
    INDEX 01 01:09:26
  TRACK 74 AUDIO
    TITLE "4:cjc137_7226"
    INDEX 01 01:10:39
  TRACK 75 AUDIO
    TITLE "0:"
    INDEX 01 01:11:70
  TRACK 76 AUDIO
    TITLE "6:cjc137_7227"
    INDEX 01 01:12:03
  TRACK 77 AUDIO
    TITLE "0:"
    INDEX 01 01:13:22
  TRACK 78 AUDIO
    TITLE "5:cjc137_7228"
    INDEX 01 01:13:28
  TRACK 79 AUDIO
    TITLE "0:"
    INDEX 01 01:14:61
  TRACK 80 AUDIO
    TITLE "4:cjc137_7229"
    INDEX 01 01:15:70
  TRACK 81 AUDIO
    TITLE "0:"
    INDEX 01 01:17:37
  TRACK 82 AUDIO
    TITLE "6:cjc137_7230"
    INDEX 01 01:17:41
  TRACK 83 AUDIO
    TITLE "0:"
    INDEX 01 01:19:42
  TRACK 84 AUDIO
    TITLE "5:cjc137_7231"
    INDEX 01 01:19:46
  TRACK 85 AUDIO
    TITLE "0:"
    INDEX 01 01:21:10
  TRACK 86 AUDIO
    TITLE "4:cjc137_7232"
    INDEX 01 01:22:19
  TRACK 87 AUDIO
    TITLE "0:"
    INDEX 01 01:24:00
  TRACK 88 AUDIO
    TITLE "6:cjc137_7233"
    INDEX 01 01:24:06
  TRACK 89 AUDIO
    TITLE "0:"
    INDEX 01 01:26:13
  TRACK 90 AUDIO
    TITLE "5:cjc137_7234"
    INDEX 01 01:26:19
  TRACK 91 AUDIO
    TITLE "0:"
    INDEX 01 01:27:73
  TRACK 92 AUDIO
    TITLE "4:cjc137_7235"
    INDEX 01 01:29:07
  TRACK 93 AUDIO
    TITLE "0:"
    INDEX 01 01:30:36
  TRACK 94 AUDIO
    TITLE "6:cjc137_7236"
    INDEX 01 01:30:44
  TRACK 95 AUDIO
    TITLE "0:"
    INDEX 01 01:31:53
  TRACK 96 AUDIO
    TITLE "5:cjc137_7237"
    INDEX 01 01:31:59
  TRACK 97 AUDIO
    TITLE "0:"
    INDEX 01 01:33:13
  TRACK 98 AUDIO
    TITLE "4:cjc137_7238"
    INDEX 01 01:34:22
  TRACK 99 AUDIO
    TITLE "0:"
    INDEX 01 01:35:43
  TRACK 100 AUDIO
    TITLE "6:cjc137_7239"
    INDEX 01 01:35:47
  TRACK 101 AUDIO
    TITLE "0:"
    INDEX 01 01:37:30
  TRACK 102 AUDIO
    TITLE "5:cjc137_7240"
    INDEX 01 01:37:38
  TRACK 103 AUDIO
    TITLE "0:"
    INDEX 01 01:38:57
  TRACK 104 AUDIO
    TITLE "4:cjc137_7241"
    INDEX 01 01:39:63
  TRACK 105 AUDIO
    TITLE "0:"
    INDEX 01 01:41:10
  TRACK 106 AUDIO
    TITLE "6:cjc137_7242"
    INDEX 01 01:41:16
  TRACK 107 AUDIO
    TITLE "0:"
    INDEX 01 01:42:67
  TRACK 108 AUDIO
    TITLE "5:cjc137_7243"
    INDEX 01 01:42:73
  TRACK 109 AUDIO
    TITLE "0:"
    INDEX 01 01:44:23
  TRACK 110 AUDIO
    TITLE "4:cjc137_7244"
    INDEX 01 01:45:30
  TRACK 111 AUDIO
    TITLE "0:"
    INDEX 01 01:46:65
  TRACK 112 AUDIO
    TITLE "6:cjc137_7245"
    INDEX 01 01:46:70
  TRACK 113 AUDIO
    TITLE "0:"
    INDEX 01 01:48:61
  TRACK 114 AUDIO
    TITLE "5:cjc137_7246"
    INDEX 01 01:48:69
  TRACK 115 AUDIO
    TITLE "0:"
    INDEX 01 01:50:27
  TRACK 116 AUDIO
    TITLE "4:cjc137_7247"
    INDEX 01 01:51:36
  TRACK 117 AUDIO
    TITLE "0:"
    INDEX 01 01:53:67
  TRACK 118 AUDIO
    TITLE "6:cjc137_7248"
    INDEX 01 01:53:74
  TRACK 119 AUDIO
    TITLE "0:"
    INDEX 01 01:56:41
  TRACK 120 AUDIO
    TITLE "5:cjc137_7249"
    INDEX 01 01:56:45
  TRACK 121 AUDIO
    TITLE "0:"
    INDEX 01 01:59:03
  TRACK 122 AUDIO
    TITLE "4:cjc137_7250"
    INDEX 01 02:00:12
  TRACK 123 AUDIO
    TITLE "0:"
    INDEX 01 02:01:25
  TRACK 124 AUDIO
    TITLE "6:cjc137_7251"
    INDEX 01 02:01:37
  TRACK 125 AUDIO
    TITLE "0:"
    INDEX 01 02:02:64
  TRACK 126 AUDIO
    TITLE "5:cjc137_7252"
    INDEX 01 02:02:71
  TRACK 127 AUDIO
    TITLE "0:"
    INDEX 01 02:04:12
  TRACK 128 AUDIO
    TITLE "4:cjc137_7253"
    INDEX 01 02:05:23
  TRACK 129 AUDIO
    TITLE "0:"
    INDEX 01 02:07:57
  TRACK 130 AUDIO
    TITLE "6:cjc137_7254"
    INDEX 01 02:07:65
  TRACK 131 AUDIO
    TITLE "0:"
    INDEX 01 02:10:00
  TRACK 132 AUDIO
    TITLE "5:cjc137_7255"
    INDEX 01 02:10:08
  TRACK 133 AUDIO
    TITLE "0:"
    INDEX 01 02:12:42
